HIERARCHY
ROOT Hips
{
    OFFSET   0.000000   0.000000   0.000000
    CHANNELS 6 Xposition Yposition Zposition Zrotation Xrotation Yrotation
    JOINT Chest
    {
        OFFSET   0.000000   8.007230   0.000000
        CHANNELS 3 Zrotation Xrotation Yrotation
        JOINT Chest2
        {
            OFFSET   0.000000  22.077100   0.000000
            CHANNELS 3 Zrotation Xrotation Yrotation
            JOINT Neck
            {
                OFFSET   0.000000  23.254800  -0.000021
                CHANNELS 3 Zrotation Xrotation Yrotation
                JOINT Head
                {
                    OFFSET   0.000000  14.370000   1.956610
                    CHANNELS 3 Zrotation Xrotation Yrotation
                    End Site
                    {
                        OFFSET   0.000000  19.566000   0.000000
                    }
                }
            }
            JOINT LeftCollar
            {
                OFFSET   3.911900  19.017000  -0.467063
                CHANNELS 3 Zrotation Xrotation Yrotation
                JOINT LeftShoulder
                {
                    OFFSET  10.383700   0.000000   0.000000
                    CHANNELS 3 Zrotation Xrotation Yrotation
                    JOINT LeftElbow
                    {
                        OFFSET  26.662100   0.001529   0.000325
                        CHANNELS 3 Zrotation Xrotation Yrotation
                        JOINT LeftWrist
                        {
                            OFFSET  28.869000  -0.000011  -0.000096
                            CHANNELS 3 Zrotation Xrotation Yrotation
                            JOINT LeftFinger0
                            {
                                OFFSET   2.044650  -2.323460   3.252850
                                CHANNELS 3 Zrotation Xrotation Yrotation
                                JOINT LeftFinger01
                                {
                                    OFFSET   3.088130   0.000000   0.000000
                                    CHANNELS 3 Zrotation Xrotation Yrotation
                                    JOINT LeftFinger02
                                    {
                                        OFFSET   2.639460   0.000000   0.000000
                                        CHANNELS 3 Zrotation Xrotation Yrotation
                                        End Site
                                        {
                                            OFFSET   2.582190   0.000000   0.000000
                                        }
                                    }
                                }
                            }
                            JOINT LeftFinger1
                            {
                                OFFSET   8.364480   0.000000   3.252850
                                CHANNELS 3 Zrotation Xrotation Yrotation
                                JOINT LeftFinger11
                                {
                                    OFFSET   4.646930   0.000000   0.000000
                                    CHANNELS 3 Zrotation Xrotation Yrotation
                                    JOINT LeftFinger12
                                    {
                                        OFFSET   2.323460   0.000000   0.000000
                                        CHANNELS 3 Zrotation Xrotation Yrotation
                                        End Site
                                        {
                                            OFFSET   2.273050   0.000000   0.000000
                                        }
                                    }
                                }
                            }
                            JOINT LeftFinger2
                            {
                                OFFSET   8.364480   0.000016   1.078090
                                CHANNELS 3 Zrotation Xrotation Yrotation
                                JOINT LeftFinger21
                                {
                                    OFFSET   5.111620   0.000000   0.000000
                                    CHANNELS 3 Zrotation Xrotation Yrotation
                                    JOINT LeftFinger22
                                    {
                                        OFFSET   2.788160   0.000017   0.000000
                                        CHANNELS 3 Zrotation Xrotation Yrotation
                                        End Site
                                        {
                                            OFFSET   2.727660   0.000000   0.000000
                                        }
                                    }
                                }
                            }
                            JOINT LeftFinger3
                            {
                                OFFSET   7.899780   0.000015  -1.078090
                                CHANNELS 3 Zrotation Xrotation Yrotation
                                JOINT LeftFinger31
                                {
                                    OFFSET   4.646920   0.000000   0.000000
                                    CHANNELS 3 Zrotation Xrotation Yrotation
                                    JOINT LeftFinger32
                                    {
                                        OFFSET   2.323470   0.000000   0.000000
                                        CHANNELS 3 Zrotation Xrotation Yrotation
                                        End Site
                                        {
                                            OFFSET   2.273050   0.000000   0.000000
                                        }
                                    }
                                }
                            }
                            JOINT LeftFinger4
                            {
                                OFFSET   7.435090   0.000000  -3.252850
                                CHANNELS 3 Zrotation Xrotation Yrotation
                                JOINT LeftFinger41
                                {
                                    OFFSET   3.717550   0.000000   0.000000
                                    CHANNELS 3 Zrotation Xrotation Yrotation
                                    JOINT LeftFinger42
                                    {
                                        OFFSET   1.858760   0.000000   0.000000
                                        CHANNELS 3 Zrotation Xrotation Yrotation
                                        End Site
                                        {
                                            OFFSET   1.818440   0.000000   0.000000
                                        }
                                    }
                                }
                            }
                        }
                    }
                }
            }
            JOINT RightCollar
            {
                OFFSET  -3.911900  19.017000  -0.467062
                CHANNELS 3 Zrotation Xrotation Yrotation
                JOINT RightShoulder
                {
                    OFFSET -10.383700   0.000015   0.000000
                    CHANNELS 3 Zrotation Xrotation Yrotation
                    JOINT RightElbow
                    {
                        OFFSET -26.662100   0.001341   0.000385
                        CHANNELS 3 Zrotation Xrotation Yrotation
                        JOINT RightWrist
                        {
                            OFFSET -28.869000   0.000025  -0.000080
                            CHANNELS 3 Zrotation Xrotation Yrotation
                            JOINT RightFinger0
                            {
                                OFFSET  -2.044650  -2.323490   3.252850
                                CHANNELS 3 Zrotation Xrotation Yrotation
                                JOINT RightFinger01
                                {
                                    OFFSET  -3.088130   0.000000   0.000000
                                    CHANNELS 3 Zrotation Xrotation Yrotation
                                    JOINT RightFinger02
                                    {
                                        OFFSET  -2.639460   0.000000   0.000000
                                        CHANNELS 3 Zrotation Xrotation Yrotation
                                        End Site
                                        {
                                            OFFSET  -2.582190   0.000000   0.000000
                                        }
                                    }
                                }
                            }
                            JOINT RightFinger1
                            {
                                OFFSET  -8.364480   0.000000   3.252850
                                CHANNELS 3 Zrotation Xrotation Yrotation
                                JOINT RightFinger11
                                {
                                    OFFSET  -4.646930   0.000000   0.000000
                                    CHANNELS 3 Zrotation Xrotation Yrotation
                                    JOINT RightFinger12
                                    {
                                        OFFSET  -2.323470   0.000000   0.000000
                                        CHANNELS 3 Zrotation Xrotation Yrotation
                                        End Site
                                        {
                                            OFFSET  -2.273050   0.000000   0.000000
                                        }
                                    }
                                }
                            }
                            JOINT RightFinger2
                            {
                                OFFSET  -8.364480   0.000000   1.078090
                                CHANNELS 3 Zrotation Xrotation Yrotation
                                JOINT RightFinger21
                                {
                                    OFFSET  -5.111610   0.000000   0.000000
                                    CHANNELS 3 Zrotation Xrotation Yrotation
                                    JOINT RightFinger22
                                    {
                                        OFFSET  -2.788160   0.000000   0.000000
                                        CHANNELS 3 Zrotation Xrotation Yrotation
                                        End Site
                                        {
                                            OFFSET  -2.727660   0.000000   0.000000
                                        }
                                    }
                                }
                            }
                            JOINT RightFinger3
                            {
                                OFFSET  -7.899780   0.000000  -1.078090
                                CHANNELS 3 Zrotation Xrotation Yrotation
                                JOINT RightFinger31
                                {
                                    OFFSET  -4.646920   0.000000   0.000000
                                    CHANNELS 3 Zrotation Xrotation Yrotation
                                    JOINT RightFinger32
                                    {
                                        OFFSET  -2.323470   0.000000   0.000000
                                        CHANNELS 3 Zrotation Xrotation Yrotation
                                        End Site
                                        {
                                            OFFSET  -2.273050   0.000000   0.000000
                                        }
                                    }
                                }
                            }
                            JOINT RightFinger4
                            {
                                OFFSET  -7.435090   0.000000  -3.252850
                                CHANNELS 3 Zrotation Xrotation Yrotation
                                JOINT RightFinger41
                                {
                                    OFFSET  -3.717550   0.000000   0.000000
                                    CHANNELS 3 Zrotation Xrotation Yrotation
                                    JOINT RightFinger42
                                    {
                                        OFFSET  -1.858770   0.000000   0.000000
                                        CHANNELS 3 Zrotation Xrotation Yrotation
                                        End Site
                                        {
                                            OFFSET  -1.818440   0.000000   0.000000
                                        }
                                    }
                                }
                            }
                        }
                    }
                }
            }
        }
    }
    JOINT LeftHip
    {
        OFFSET   9.783010   0.000000   0.000000
        CHANNELS 3 Zrotation Xrotation Yrotation
        JOINT LeftKnee
        {
            OFFSET   0.000070 -41.789100   0.000028
            CHANNELS 3 Zrotation Xrotation Yrotation
            JOINT LeftAnkle
            {
                OFFSET   0.000087 -41.133200  -0.000100
                CHANNELS 3 Zrotation Xrotation Yrotation
                JOINT LeftToe
                {
                    OFFSET   0.000000  -6.358960  14.674500
                    CHANNELS 3 Zrotation Xrotation Yrotation
                    End Site
                    {
                        OFFSET   0.000000   0.000000   3.913200
                    }
                }
            }
        }
    }
    JOINT RightHip
    {
        OFFSET  -9.783020   0.000000   0.000000
        CHANNELS 3 Zrotation Xrotation Yrotation
        JOINT RightKnee
        {
            OFFSET   0.000044 -41.789100  -0.000870
            CHANNELS 3 Zrotation Xrotation Yrotation
            JOINT RightAnkle
            {
                OFFSET  -0.000090 -41.133200  -0.000245
                CHANNELS 3 Zrotation Xrotation Yrotation
                JOINT RightToe
                {
                    OFFSET   0.000000  -6.358960  14.674500
                    CHANNELS 3 Zrotation Xrotation Yrotation
                    End Site
                    {
                        OFFSET   0.000000   0.000000   3.913200
                    }
                }
            }
        }
    }
}
MOTION
Frames: 4
Frame Time:   0.016667
 -1.137770  89.490800  -0.666312  -1.630920  -1.841460  -0.050831   0.840030   1.922980  -0.491983   1.697980   3.838440  -1.012990  -0.771859   1.037510   0.018138  -1.273180   2.102470   3.643300  -0.885545   3.402140  10.386700 -81.250800   1.188150   3.219400   0.404752   8.118320 -15.992800  10.748100  -2.964080  -4.440380  39.712800  24.152700 -43.139500 -25.280000  -0.002755  -0.001214  -7.640020  -0.001131  -0.002095 -24.765200  -0.672000   1.456320 -20.267400   0.002116  -0.001493 -14.188200   0.007019  -0.007167 -27.207400  -3.928540   7.587610 -29.105900  -0.003567   0.002161 -19.378000   0.010260   0.001209 -23.997500  -3.923990   8.740910 -24.290100   0.001661  -0.007418 -16.168400   0.005661  -0.004438 -26.939600  -4.370120   8.527880 -40.898900  -0.000270  -0.001642 -27.229900   0.000910  -0.004247   3.980000   4.821400   4.570510  74.940600  -8.340000  -2.489320   4.680970  -5.696460  10.647800 -19.807700   5.245970   6.507540 -40.612700  29.066200  68.838100  16.395400  -0.003445  -0.016252   3.197690   0.012511  -0.006483  20.206400   1.458400   3.955830  16.573700  -0.001834   0.001454  11.601600  -0.001038   0.001264  21.513300   0.796219   2.019130  21.527400   0.006938   0.007681  14.337200  -0.001478  -0.001381  21.847000  -0.825238  -2.072260  21.861800   0.005183  -0.012706  14.559900  -0.002211  -0.009072  25.773000  -0.964768  -2.010490  38.684700   0.006795   0.003541  25.764000   0.003086  -0.000934   3.598450   3.351710  -2.595270  -0.047252   0.471777   6.117010  -1.932160  -2.496460   0.613747   0.000000   0.000000   0.000000  -0.491700   3.789980  -5.928980  -1.028510   1.662850 -10.084100   1.699510  -2.768160  -0.064064  -0.000000   0.000000   0.000000
 -1.144390  89.490800  -0.673954  -1.631750  -1.850090  -0.077167   0.839991   1.938330  -0.494557   1.698080   3.869110  -1.018380  -0.771870   1.049140   0.018132  -1.273670   2.125970   3.631300  -0.893609   3.404160  10.392600 -81.244700   1.209340   3.223640   0.397933   8.111290 -16.005300  10.748000  -2.964080  -4.440380  39.717400  24.140700 -43.162000 -25.272100  -0.002758  -0.001210  -7.636080  -0.001136  -0.002095 -24.768800  -0.663073   1.436740 -20.267400   0.002108  -0.001493 -14.188300   0.007022  -0.007170 -27.211000  -3.914550   7.560410 -29.102100  -0.003572   0.002162 -19.378100   0.010269   0.001210 -23.996200  -3.913500   8.717940 -24.290100   0.001656  -0.007421 -16.168300   0.005657  -0.004440 -26.939100  -4.358380   8.505520 -40.895300  -0.000270  -0.001644 -27.230000   0.000901  -0.004253   3.973420   4.821320   4.578540  74.924200  -8.334370  -2.480470   4.694460  -5.712990  10.648600 -19.806800   5.259410   6.503590 -40.624900  29.077800  68.844500  16.398400  -0.003457  -0.016256   3.199190   0.012525  -0.006488  20.179900   1.450610   3.939550  16.551800  -0.001840   0.001463  11.586200  -0.001041   0.001270  21.490500   0.787383   1.998680  21.504300   0.006939   0.007687  14.321900  -0.001478  -0.001372  21.816000  -0.830406  -2.081780  21.831000   0.005182  -0.012703  14.539500  -0.002214  -0.009070  25.746400  -0.970889  -2.019760  38.645100   0.006794   0.003539  25.737600   0.003090  -0.000936   3.603530   3.357420  -2.590310  -0.047464   0.475238   6.133550  -1.935600  -2.497780   0.613825  -0.000000   0.000000   0.000000  -0.491642   3.808880  -5.929030  -1.022360   1.638890 -10.080000   1.695490  -2.756070  -0.040091  -0.000000   0.000000   0.000000
 -1.156100  89.490800  -0.686791  -1.633150  -1.864760  -0.120115   0.840095   1.964810  -0.498429   1.698770   3.922020  -1.026550  -0.771915   1.070500   0.018127  -1.274640   2.169200   3.612800  -0.906400   3.410660  10.401000 -81.232200   1.245050   3.227910   0.385955   8.100860 -16.024500  10.748000  -2.964070  -4.440380  39.713000  24.128700 -43.184500 -25.264200  -0.002768  -0.001206  -7.632130  -0.001144  -0.002099 -24.772400  -0.654146   1.417170 -20.267300   0.002089  -0.001494 -14.188400   0.007028  -0.007179 -27.214600  -3.900560   7.533210 -29.096500  -0.003588   0.002167 -19.378200   0.010295   0.001214 -23.993100  -3.903010   8.694980 -24.290200   0.001642  -0.007427 -16.168200   0.005645  -0.004447 -26.937200  -4.346630   8.483160 -40.889700  -0.000270  -0.001648 -27.230300   0.000877  -0.004270   3.963840   4.821200   4.590250  74.898200  -8.322360  -2.465550   4.714980  -5.736050  10.649600 -19.804700   5.272980   6.487070 -40.634400  29.089400  68.851000  16.418500  -0.003480  -0.016268   3.209230   0.012557  -0.006492  20.154100   1.437190   3.909230  16.529900  -0.001856   0.001485  11.570900  -0.001049   0.001287  21.468100   0.772004   1.962150  21.481200   0.006941   0.007705  14.306500  -0.001478  -0.001348  21.777400  -0.837679  -2.095750  21.792700   0.005178  -0.012695  14.514000  -0.002224  -0.009064  25.708500  -0.979429  -2.033400  38.588800   0.006793   0.003535  25.700100   0.003101  -0.000940   3.613320   3.369600  -2.581880  -0.047781   0.478688   6.162310  -1.941850  -2.499100   0.613978  -0.000000   0.000000  -0.000000  -0.491615   3.827780  -5.928630  -1.011210   1.612240 -10.073300   1.687070  -2.735660  -0.002452  -0.000000   0.000000   0.000000
 -1.166760  89.490800  -0.697124  -1.634300  -1.877010  -0.152658   0.840666   1.988160  -0.500625   1.700330   3.968690  -1.031340  -0.772018   1.090740   0.018133  -1.275720   2.210390   3.600510  -0.916447   3.422480  10.404100 -81.217000   1.275870   3.222930   0.375511   8.096530 -16.038500  10.748300  -2.964890  -4.432830  39.715200  24.177200 -43.191300 -25.289800  -0.002784  -0.001244  -7.644880  -0.001151  -0.002116 -24.769800  -0.657952   1.425570 -20.267500   0.002062  -0.001497 -14.188600   0.007032  -0.007193 -27.213200  -3.904950   7.541900 -29.093300  -0.003613   0.002172 -19.378300   0.010336   0.001219 -23.989500  -3.906260   8.703320 -24.290200   0.001621  -0.007437 -16.168000   0.005627  -0.004458 -26.934100  -4.350420   8.491270 -40.885800  -0.000271  -0.001654 -27.230600   0.000839  -0.004297   3.959470   4.821150   4.596940  74.879000  -8.307030  -2.452670   4.727060  -5.743780  10.646400 -19.819400   5.272370   6.450470 -40.619000  29.080400  68.847200  16.468400  -0.003502  -0.016288   3.234200   0.012598  -0.006477  20.156300   1.422420   3.869320  16.530200  -0.001883   0.001518  11.571100  -0.001064   0.001314  21.469400   0.754667   1.918260  21.481400   0.006941   0.007735  14.306700  -0.001477  -0.001312  21.768500  -0.840927  -2.104010  21.783900   0.005173  -0.012682  14.508100  -0.002238  -0.009055  25.690400  -0.982984  -2.041580  38.561800   0.006794   0.003528  25.682100   0.003119  -0.000946   3.624240   3.385640  -2.575360  -0.047909   0.474615   6.189350  -1.947670  -2.497530   0.614201  -0.000000   0.000000  -0.000000  -0.488539   3.822480  -5.923950  -1.000020   1.610140 -10.070400   1.676540  -2.718650   0.023264  -0.000000   0.000000   0.000000
